<?xml version="1.0" encoding="utf-8"?>
<!-- Generator: Adobe Illustrator 15.1.0, SVG Export Plug-In . SVG Version: 6.00 Build 0)  -->
<!DOCTYPE svg PUBLIC "-//W3C//DTD SVG 1.1//EN" "http://www.w3.org/Graphics/SVG/1.1/DTD/svg11.dtd">
<svg version="1.1" id="Layer_1" xmlns="http://www.w3.org/2000/svg" xmlns:xlink="http://www.w3.org/1999/xlink" x="0px" y="0px"
	 width="333.541px" height="147.42px" viewBox="0 0 333.541 147.42" enable-background="new 0 0 333.541 147.42"
	 xml:space="preserve">
<g>
	<path fill-rule="evenodd" clip-rule="evenodd" fill="#1E8F57" d="M147.24,0c0,0.06,0,0.12,0,0.18c-49.019,0-98.041,0-147.061,0
		c0,49.019,0,98.041,0,147.061c49.019,0,98.041,0,147.061,0c0,0.06,0,0.12,0,0.18c-49.08,0-98.161,0-147.24,0C0,98.28,0,49.14,0,0
		C49.08,0,98.161,0,147.24,0z"/>
	<path fill-rule="evenodd" clip-rule="evenodd" fill="#53A97E" d="M147.24,0.18c0-0.06,0-0.12,0-0.18c0.3,48.72,0.3,98.701,0,147.42
		c0-0.06,0-0.12,0-0.18C147.24,98.222,147.24,49.199,147.24,0.18z"/>
	<path fill-rule="evenodd" clip-rule="evenodd" fill="#53A97E" d="M163.98,114.66c0.666-0.299,2.575-0.299,3.24,0
		C166.14,114.66,165.06,114.66,163.98,114.66z"/>
	<path fill-rule="evenodd" clip-rule="evenodd" fill="#1E8F57" d="M181.26,114.84c0,0.6,0,1.2,0,1.8c-0.06,0-0.12,0-0.18,0
		C181.193,116.093,180.85,115.09,181.26,114.84z"/>
	<path fill-rule="evenodd" clip-rule="evenodd" fill="#53A97E" d="M181.081,116.64c0.06,0,0.12,0,0.18,0c0,2.22,0,4.44,0,6.66
		c-0.06,0-0.12,0-0.18,0C181.081,121.08,181.081,118.86,181.081,116.64z"/>
	<path fill-rule="evenodd" clip-rule="evenodd" fill="#D7EBE1" d="M179.1,118.44c0,0.66,0,1.32,0,1.98
		C178.802,120.168,178.802,118.692,179.1,118.44z"/>
	<path fill-rule="evenodd" clip-rule="evenodd" fill="#1E8F57" d="M55.44,120.24c0.194-0.298,1.606-0.298,1.8,0
		C56.64,120.24,56.04,120.24,55.44,120.24z"/>
	<path fill-rule="evenodd" clip-rule="evenodd" fill="#D7EBE1" d="M261.002,121.86c0.193-0.298,1.605-0.298,1.799,0
		C262.201,121.86,261.602,121.86,261.002,121.86z"/>
	<path fill-rule="evenodd" clip-rule="evenodd" fill="#1E8F57" d="M53.82,122.22c0.25-0.411,1.253-0.067,1.8-0.18
		C55.371,122.451,54.367,122.107,53.82,122.22z"/>
	<path fill-rule="evenodd" clip-rule="evenodd" fill="#1E8F57" d="M181.081,123.3c0.06,0,0.12,0,0.18,0c0,1.2,0,2.4,0,3.6
		c-0.06,0-0.12,0-0.18,0C181.081,125.7,181.081,124.5,181.081,123.3z"/>
	<path fill-rule="evenodd" clip-rule="evenodd" fill="#1E8F57" d="M134.1,124.2c0.252-0.298,1.728-0.298,1.98,0
		C135.42,124.2,134.76,124.2,134.1,124.2z"/>
	<path fill-rule="evenodd" clip-rule="evenodd" fill="#D7EBE1" d="M71.1,124.2c0,1.2,0,2.4,0,3.6
		C70.801,127.016,70.801,124.984,71.1,124.2z"/>
	<path fill-rule="evenodd" clip-rule="evenodd" fill="#1E8F57" d="M85.32,124.56c0.23-0.79,1.884-0.156,2.7-0.36
		C87.502,124.703,85.849,124.069,85.32,124.56z"/>
	<path fill-rule="evenodd" clip-rule="evenodd" fill="#53A97E" d="M241.381,127.26c-0.299-0.546-0.299-2.334,0-2.88
		C241.381,125.34,241.381,126.3,241.381,127.26z"/>
	<path fill-rule="evenodd" clip-rule="evenodd" fill="#53A97E" d="M158.94,126.18c0.06,0,0.12,0,0.18,0c0,0.96,0,1.92,0,2.88
		c-0.06,0-0.12,0-0.18,0C158.94,128.1,158.94,127.14,158.94,126.18z"/>
	<path fill-rule="evenodd" clip-rule="evenodd" fill="#1E8F57" d="M126.9,126.9c0.3,1.083,0.3,3.417,0,4.5
		C126.9,129.9,126.9,128.4,126.9,126.9z"/>
	<path fill-rule="evenodd" clip-rule="evenodd" fill="#53A97E" d="M181.081,126.9c0.06,0,0.12,0,0.18,0c0,1.14,0,2.28,0,3.42
		c-0.06,0-0.12,0-0.18,0C181.081,129.18,181.081,128.04,181.081,126.9z"/>
	<path fill-rule="evenodd" clip-rule="evenodd" fill="#1E8F57" d="M112.86,127.26c0.25-0.411,1.253-0.067,1.8-0.18
		c0,0.06,0,0.12,0,0.18C114.06,127.26,113.46,127.26,112.86,127.26z"/>
	<path fill-rule="evenodd" clip-rule="evenodd" fill="#99CCB3" d="M111.78,127.26c-0.194,0.298-1.606,0.298-1.8,0
		C110.58,127.26,111.18,127.26,111.78,127.26z"/>
	<path fill-rule="evenodd" clip-rule="evenodd" fill="#D7EBE1" d="M290.162,127.8c0.297,0.311,0.297,1.85,0,2.16
		C290.162,129.24,290.162,128.52,290.162,127.8z"/>
	<path fill-rule="evenodd" clip-rule="evenodd" fill="#1E8F57" d="M82.98,128.16c0,0.84,0,1.68,0,2.52
		C82.681,130.252,82.681,128.588,82.98,128.16z"/>
	<path fill-rule="evenodd" clip-rule="evenodd" fill="#99CCB3" d="M84.96,131.04c-0.299-0.428-0.299-2.092,0-2.52
		C84.96,129.36,84.96,130.2,84.96,131.04z"/>
	<path fill-rule="evenodd" clip-rule="evenodd" fill="#1E8F57" d="M206.64,128.88c0.3,0.784,0.3,2.815,0,3.6
		C206.64,131.28,206.64,130.08,206.64,128.88z"/>
	<path fill-rule="evenodd" clip-rule="evenodd" fill="#1E8F57" d="M69.12,129.06c0.06,0,0.12,0,0.18,0c0,1.32,0,2.64,0,3.96
		c-0.06,0-0.12,0-0.18,0C69.12,131.7,69.12,130.38,69.12,129.06z"/>
	<path fill-rule="evenodd" clip-rule="evenodd" fill="#D7EBE1" d="M36.36,129.6c0.369-0.299,1.971-0.299,2.34,0
		C37.92,129.6,37.14,129.6,36.36,129.6z"/>
	<path fill-rule="evenodd" clip-rule="evenodd" fill="#99CCB3" d="M181.081,130.32c0.06,0,0.12,0,0.18,0
		c-0.118,1.381,0.238,3.238-0.18,4.32C181.081,133.2,181.081,131.76,181.081,130.32z"/>
	<path fill-rule="evenodd" clip-rule="evenodd" fill="#1E8F57" d="M62.1,133.2c0.116-0.784-0.235-2.035,0.18-2.52
		C62.164,131.464,62.515,132.715,62.1,133.2z"/>
	<path fill-rule="evenodd" clip-rule="evenodd" fill="#1E8F57" d="M129.06,135.54c-0.299-0.903-0.299-3.056,0-3.96
		C129.06,132.9,129.06,134.22,129.06,135.54z"/>
	<path fill-rule="evenodd" clip-rule="evenodd" fill="#53A97E" d="M163.8,137.52c-0.194,0.298-1.606,0.298-1.8,0
		C162.6,137.52,163.2,137.52,163.8,137.52z"/>
	<path fill-rule="evenodd" clip-rule="evenodd" fill="#D7EBE1" d="M161.46,138.78c0.66,0,1.32,0,1.98,0
		C163.188,139.079,161.712,139.079,161.46,138.78z"/>
	<path fill-rule="evenodd" clip-rule="evenodd" fill="#D7EBE1" d="M196.38,139.5c0.84,0,1.68,0,2.52,0
		C198.472,139.799,196.808,139.799,196.38,139.5z"/>
	<path fill-rule="evenodd" clip-rule="evenodd" fill="#008040" d="M178.92,111.6c-0.17-2.458-0.498-5.03,2.34-4.86
		c1.356,1.639-0.76,4.794,0,8.1c-0.41,0.25-0.067,1.253-0.18,1.8c0,2.22,0,4.44,0,6.66c0,1.2,0,2.4,0,3.6c0,1.14,0,2.28,0,3.42
		c0,1.44,0,2.88,0,4.32c0.134,1.426,0.768,2.353,0.899,3.78c-1.135,0.46-2.125,0.977-3.239,0.18c-0.357-1.291,0.502-2.833,0.359-4.5
		c0.3-3.78,0.3-8.819,0-12.6c0-0.36,0-0.72,0-1.08c0-0.66,0-1.32,0-1.98c0-0.36,0-0.72,0-1.08c0.299-0.252,0.299-1.728,0-1.979
		c0-0.48,0-0.96,0-1.44C178.985,113.216,179.334,112.026,178.92,111.6z"/>
	<path fill-rule="evenodd" clip-rule="evenodd" fill="#008040" d="M206.64,113.04c0.131-1.291-0.453-2.226,0.181-3.06
		c0.626-0.117,1.502-0.662,2.159-0.18c0.784,1.668-0.882,3.56-0.359,6.12c-0.3,6.3-0.3,13.86,0,20.16
		c-0.065,1.117,0.632,1.486,0.18,2.52c-0.834-0.09-1.673,0.491-2.34,0c-0.432-1.328,0.55-3.724,0.18-6.12c0.3-0.784,0.3-2.815,0-3.6
		c0-1.02,0-2.04,0-3.06c0-2.82,0-5.64,0-8.46c0-0.6,0-1.2,0-1.8C206.939,115.132,206.939,113.468,206.64,113.04z"/>
	<path fill-rule="evenodd" clip-rule="evenodd" fill="#008040" d="M147.24,0.18c0,49.02,0,98.042,0,147.061
		c-49.02,0-98.042,0-147.061,0c0-49.02,0-98.042,0-147.061C49.199,0.18,98.222,0.18,147.24,0.18z M38.7,129.6
		c0.977,0.649,1.5-0.151,2.52,0.18c1.443,2.773,3.052,5.875,3.06,9.54c1.334-0.166,2.524-0.476,3.24-1.26
		c-3.291-8.902-8.477-16.825-10.62-26.28c-1.579,0.221-2.012,1.588-2.7,2.7c-2.336,6.004-6.43,10.25-8.82,16.2
		c-1.383,1.202-1.854,3.033-2.88,4.5c-0.999,1.429-2.488,2.581-3.06,4.32c0.803,0.577,2.21,0.55,3.24,0.9
		c1.537-3.023,2.223-6.897,4.14-9.54c2.401-1.4,6.845-0.587,9.54-1.26C37.14,129.6,37.92,129.6,38.7,129.6z M85.68,119.7
		c-0.153-2.445,0.916-4.587,1.08-6.12c-1.098-1.539-3.05-0.039-2.88,1.8c-0.414,0.426-0.064,1.615-0.18,2.34
		c0.038,1.478-0.381,2.499-0.54,3.78c-1.024,0.836-2.648,1.072-4.5,1.08c-0.505,0.095-0.351,0.85-0.9,0.9
		c-3.192,0.529-5.083,2.357-6.48,4.68c0.001-0.181-0.146-0.214-0.18-0.36c0-1.2,0-2.4,0-3.6c0.118-1.202,0.681-1.958,0.54-3.42
		c-1.084-0.857-2.65-0.011-3.06,0.9c0.267,1.773,0.486,3.594,0.54,5.58c0,0.6,0,1.2,0,1.8c0,1.32,0,2.64,0,3.96c0,0.9,0,1.8,0,2.7
		c0.09,1.351-0.666,1.854-0.54,3.24c1.17,0.465,2.993,0.146,3.42-0.72c-1.932-4.541-0.2-13.685,5.58-11.52
		c0.565-0.78,1.157-2.206,1.08-3.06c1.327,0.505,3.867,0.237,4.68,0.72c-0.256,1.124-0.358,2.402-0.36,3.78
		c-0.299,0.428-0.299,2.092,0,2.52c-0.072,2.257,0.484,5.272,2.34,7.02c1.785,1.681,5.829,3.613,5.76-0.18
		c-3.726-0.474-6-2.4-6.12-6.48c0-0.84,0-1.68,0-2.52c-0.033-1.473,0.3-2.58,0.36-3.96c0.529-0.491,2.183,0.143,2.7-0.36
		c1.926,0.277,3.34,0.913,3.96-0.72c-1.671-1.871-4.333-0.208-6.3-1.08C85.68,121.5,85.68,120.6,85.68,119.7z M55.44,120.24
		c-2.124,0.276-4.663,0.137-4.68,2.52c1.321,0.784,1.642-0.837,3.06-0.54c0.547-0.113,1.551,0.23,1.8-0.18
		c2.929,0.472,4.884,2.535,4.32,5.94c-4.132,1.508-8.664,2.617-10.08,6.84c-0.298,0.194-0.298,1.606,0,1.8c0,0.12,0,0.24,0,0.36
		c2.044,3.519,7.625,1.446,10.08,0.36c0.367,2.347-1.088,2.872-0.72,5.22c1.326,0.599,2.358-0.31,3.06-0.9c0-0.06,0-0.12,0-0.18
		c0.298-0.252,0.298-1.728,0-1.98c0.042-1.28-0.639-2.464-0.18-3.6c0.299-0.428,0.299-2.092,0-2.52c0-0.06,0-0.12,0-0.18
		c0.415-0.485,0.064-1.736,0.18-2.52c-0.203-1.043,0.371-1.309,0.54-1.98c-0.587-0.373-0.74-0.946-0.9-1.62
		c-0.537-2.261-0.396-4.35-1.98-5.76c-0.607-0.541-1.488-0.934-2.7-1.08C57.046,119.942,55.634,119.942,55.44,120.24z M139.5,130.86
		c0.106,4.126-1.522,6.518-2.7,9.36c0.41,0.729,1.277,1.003,2.52,0.9c0.867-0.597,0.651-1.929,0.9-3.24
		c0.683-3.599,2.614-9.617,0.72-13.14c-2.225-4.14-7.94-1.471-11.7-0.54c-0.219-1.34,0.768-2.294,0.18-3.42
		c-1.614,0.186-2.504,1.096-3.24,2.16c0.532,1.028,0.823,2.297,0.72,3.96c0,1.5,0,3,0,4.5c0.148,2.848-0.387,5.013-0.9,7.2
		c0.877,1.055,2.26,0.506,3.24-0.18c0.273-1.229,0.034-1.782-0.18-2.88c0-1.32,0-2.64,0-3.96c-0.533-4.673,1.232-7.048,5.04-7.38
		c0.66,0,1.32,0,1.98,0c2.242,0.158,3.188,1.612,3.42,3.78C139.5,128.94,139.5,129.9,139.5,130.86z M99.72,120.96
		c-4.082-0.001-6.517,1.644-6.12,6.12c1.528,3.103,6.795,2.047,8.1,5.04c2.016,4.626-4.11,7.042-8.28,4.68
		c-0.127,0.967,0.206,1.475,0.36,2.16c5.745,1.99,11.858-2.556,9.9-8.1c-1.098-3.108-7.954-2.464-8.46-5.22
		c-0.36-1.958,1.327-3.396,2.88-3.24c0.66,0,1.32,0,1.98,0c0.975,0.091,1.752,1.186,2.52,0.9c0.309-0.634,0.554-1.734,0.18-2.52
		c-0.313-0.014-0.56,0.04-0.72,0.18C101.691,120.662,100.089,120.662,99.72,120.96z M114.66,128.52c2.368-0.406,4.608,0.527,6.48,0
		c0.94-3.593-0.561-7.065-3.78-7.38c-3.815-0.373-7.185,2.037-8.64,3.96c-4.524,5.977-1.819,14.766,7.56,14.4
		c0.664,0.417,2.097,0.063,3.06,0.18c0.18,0,0.36,0,0.54,0c0.917-0.595,1.823-1.71,1.26-3.24c-6.006,2.833-15.043-0.777-11.88-7.56
		c0.742,0.022,1.127-0.313,1.98-0.18C112.322,128.583,113.877,128.937,114.66,128.52z"/>
	<path fill-rule="evenodd" clip-rule="evenodd" fill="#008040" d="M300.961,116.1c-0.195,1.9-2.541,1.509-3.059,0.18
		C298.131,114.566,300.387,114.942,300.961,116.1z"/>
	<path fill-rule="evenodd" clip-rule="evenodd" fill="#99CCB3" d="M239.581,138.96c0.613-0.049,1.46,0.14,1.8-0.18
		C241.369,139.318,239.835,139.261,239.581,138.96z"/>
	<path fill-rule="evenodd" clip-rule="evenodd" fill="#008040" d="M277.561,135.54c0.295,1.019,0.406,1.7,0.182,2.88
		c-0.953,0.684-2.031,0.866-3.061,0.18c1.369-3.96,1.59-11.503,0.359-15.84c0.639-0.888,1.975-1.952,3.061-1.8
		c0.236,1.301-0.748,2.19-0.18,3.24c1.98,0.047,4.139-1.25,6.299-1.62c0.602,0,1.201,0,1.801,0c2.828,0.292,3.877,2.364,4.141,5.22
		c0,0.72,0,1.44,0,2.16c-0.301,4.02-1.283,7.357-1.98,10.98c-1.047,0.465-2.164-0.122-2.699-0.72
		c2.826-3.944,5.482-16.256-1.621-16.38c-2.846-0.05-4.631,1.496-6.119,3.24c-0.152,1.409-0.236,2.885-0.182,4.5
		C277.262,132.484,277.262,134.637,277.561,135.54z"/>
	<path fill-rule="evenodd" clip-rule="evenodd" fill="#53A97E" d="M212.22,128.16c0.645-0.795,1.365-1.515,2.16-2.16
		C213.736,126.795,213.015,127.515,212.22,128.16z"/>
	<path fill-rule="evenodd" clip-rule="evenodd" fill="#99CCB3" d="M212.22,129.42c0.735-0.584,1.396-1.245,1.98-1.98
		c0.06,0,0.119,0,0.18,0c-0.645,0.795-1.365,1.516-2.16,2.16C212.22,129.54,212.22,129.48,212.22,129.42z"/>
	<path fill-rule="evenodd" clip-rule="evenodd" fill="#1E8F57" d="M215.64,126.18c0.77-0.851,1.46-1.78,2.521-2.34
		C217.274,124.574,216.544,125.464,215.64,126.18z"/>
	<path fill-rule="evenodd" clip-rule="evenodd" fill="#1E8F57" d="M212.22,129.42c0.585-0.735,1.245-1.395,1.98-1.98
		C213.616,128.175,212.956,128.835,212.22,129.42z"/>
	<path fill-rule="evenodd" clip-rule="evenodd" fill="#FFFFFF" d="M36.36,129.6c-2.695,0.673-7.139-0.14-9.54,1.26
		c-1.917,2.643-2.603,6.517-4.14,9.54c-1.03-0.351-2.437-0.323-3.24-0.9c0.572-1.739,2.061-2.891,3.06-4.32
		c1.026-1.467,1.497-3.298,2.88-4.5c2.39-5.95,6.484-10.196,8.82-16.2c0.688-1.111,1.122-2.479,2.7-2.7
		c2.143,9.455,7.33,17.377,10.62,26.28c-0.716,0.785-1.906,1.095-3.24,1.26c-0.008-3.666-1.617-6.767-3.06-9.54
		c-1.02-0.331-1.543,0.469-2.52-0.18C38.331,129.301,36.729,129.301,36.36,129.6z M38.16,128.16c0.864,0.024,1.508-0.171,1.98-0.54
		c-1.607-3.793-2.557-8.243-5.04-11.16c-2.27,3.695-5.292,7.632-6.3,11.7c2.54,0.597,5.252,0.085,7.56,0
		C36.554,128.458,37.966,128.458,38.16,128.16z"/>
	<path fill-rule="evenodd" clip-rule="evenodd" fill="#008040" d="M158.94,115.2c0.096-0.696-0.321-0.879-0.18-1.62
		c3.904-0.705,10.681,0.065,15.3-0.18c0.294,0.384-0.195,1.138-0.18,1.8c-2.436,0.739-3.962-0.946-6.66-0.54
		c-0.665-0.299-2.575-0.299-3.24,0c-0.783-0.003-1.619-0.06-2.16,0.18c-0.642,2.557-1.156,6.601-0.18,9.18
		c2.54,0.994,6.248,0.369,9.18,0.18c0.064,1.024,0.044,1.964-0.54,2.34c-2.489,0.04-7.042-1.561-8.64-0.36
		c-2.091,1.571-0.308,7.818-0.54,11.16c0.434-0.074,0.392,0.329,0.9,0.18c0.194,0.298,1.606,0.298,1.8,0
		c3.52-0.2,7.527,0.087,10.08-1.08c0.04,0.941-0.003,1.797-0.18,2.52c-3.178,0.395-6.56-0.503-10.26-0.18c-0.66,0-1.32,0-1.98,0
		c-0.883-0.4-1.938,0.416-2.88,0.54c-0.117-1.695,0.549-4.117,0.36-6.48c0.417-0.903,0.062-2.578,0.18-3.78c0-0.96,0-1.92,0-2.88
		C159,122.58,159.36,118.5,158.94,115.2z"/>
	<path fill-rule="evenodd" clip-rule="evenodd" fill="#99CCB3" d="M206.64,113.04c0.299,0.428,0.299,2.092,0,2.52
		C206.64,114.72,206.64,113.88,206.64,113.04z"/>
	<path fill-rule="evenodd" clip-rule="evenodd" fill="#53A97E" d="M179.1,115.38c0.299,0.252,0.299,1.728,0,1.979
		C179.1,116.7,179.1,116.04,179.1,115.38z"/>
	<path fill-rule="evenodd" clip-rule="evenodd" fill="#53A97E" d="M83.88,115.38c-0.115,0.724,0.234,1.914-0.18,2.34
		C83.815,116.996,83.466,115.806,83.88,115.38z"/>
	<path fill-rule="evenodd" clip-rule="evenodd" fill="#D7EBE1" d="M227.52,115.38c-0.117,0.962,0.236,2.396-0.18,3.06
		C227.458,117.478,227.104,116.044,227.52,115.38z"/>
	<path fill-rule="evenodd" clip-rule="evenodd" fill="#D7EBE1" d="M206.64,117.36c0,2.82,0,5.64,0,8.46
		C206.34,123.419,206.34,119.761,206.64,117.36z"/>
	<path fill-rule="evenodd" clip-rule="evenodd" fill="#53A97E" d="M325.801,120.42c0.43-0.299,2.092-0.299,2.521,0
		C327.482,120.42,326.641,120.42,325.801,120.42z"/>
	<path fill-rule="evenodd" clip-rule="evenodd" fill="#99CCB3" d="M99.72,120.96c0.369-0.298,1.971-0.298,2.34,0
		C101.28,120.96,100.5,120.96,99.72,120.96z"/>
	<path fill-rule="evenodd" clip-rule="evenodd" fill="#53A97E" d="M229.14,119.88c0,0.72,0,1.44,0,2.16
		C228.842,121.729,228.842,120.19,229.14,119.88z"/>
	<path fill-rule="evenodd" clip-rule="evenodd" fill="#D7EBE1" d="M314.641,121.68c0.666-0.299,2.576-0.299,3.24,0
		C316.801,121.68,315.721,121.68,314.641,121.68z"/>
	<path fill-rule="evenodd" clip-rule="evenodd" fill="#53A97E" d="M325.082,122.04c0.193-0.298,1.605-0.298,1.799,0
		C326.281,122.04,325.682,122.04,325.082,122.04z"/>
	<path fill-rule="evenodd" clip-rule="evenodd" fill="#1E8F57" d="M85.68,122.4c-0.299-0.487-0.299-2.213,0-2.7
		C85.68,120.6,85.68,121.5,85.68,122.4z"/>
	<path fill-rule="evenodd" clip-rule="evenodd" fill="#1E8F57" d="M98.1,122.4c0.252-0.298,1.728-0.298,1.98,0
		C99.42,122.4,98.76,122.4,98.1,122.4z"/>
	<path fill-rule="evenodd" clip-rule="evenodd" fill="#99CCB3" d="M284.221,122.58c0.195-0.298,1.607-0.298,1.801,0
		C285.422,122.58,284.822,122.58,284.221,122.58z"/>
	<path fill-rule="evenodd" clip-rule="evenodd" fill="#99CCB3" d="M318.242,122.76c-0.113,0.547,0.23,1.55-0.182,1.8
		C318.174,124.013,317.832,123.01,318.242,122.76z"/>
	<path fill-rule="evenodd" clip-rule="evenodd" fill="#99CCB3" d="M114.66,127.08c0.6,0,1.2,0,1.8,0
		c-0.25,0.411-1.253,0.067-1.8,0.18C114.66,127.2,114.66,127.14,114.66,127.08z"/>
	<path fill-rule="evenodd" clip-rule="evenodd" fill="#99CCB3" d="M189.72,127.26c1.38,0,2.76,0,4.14,0
		C192.897,127.56,190.684,127.56,189.72,127.26z"/>
	<path fill-rule="evenodd" clip-rule="evenodd" fill="#53A97E" d="M226.8,127.26c-0.114,0.606,0.232,1.672-0.18,1.98
		C226.734,128.634,226.388,127.568,226.8,127.26z"/>
	<path fill-rule="evenodd" clip-rule="evenodd" fill="#99CCB3" d="M270.002,127.44c0.299,0.369,0.299,1.971,0,2.34
		C270.002,129,270.002,128.22,270.002,127.44z"/>
	<path fill-rule="evenodd" clip-rule="evenodd" fill="#53A97E" d="M36.36,128.16c0.6,0,1.2,0,1.8,0
		C37.966,128.458,36.554,128.458,36.36,128.16z"/>
	<path fill-rule="evenodd" clip-rule="evenodd" fill="#53A97E" d="M69.12,127.26c0.41,0.25,0.067,1.253,0.18,1.8
		c-0.06,0-0.12,0-0.18,0C69.12,128.46,69.12,127.86,69.12,127.26z"/>
	<path fill-rule="evenodd" clip-rule="evenodd" fill="#1E8F57" d="M139.5,127.98c0.299,0.546,0.299,2.334,0,2.88
		C139.5,129.9,139.5,128.94,139.5,127.98z"/>
	<path fill-rule="evenodd" clip-rule="evenodd" fill="#1E8F57" d="M111.24,128.7c0.783-0.417,2.338-0.063,3.42-0.18
		C113.877,128.937,112.322,128.583,111.24,128.7z"/>
	<path fill-rule="evenodd" clip-rule="evenodd" fill="#53A97E" d="M226.621,129.78c0.41,0.25,0.066,1.253,0.18,1.8
		C226.39,131.331,226.733,130.327,226.621,129.78z"/>
	<path fill-rule="evenodd" clip-rule="evenodd" fill="#99CCB3" d="M159.12,129.06c-0.118,1.202,0.238,2.877-0.18,3.78
		c0-1.26,0-2.52,0-3.78C159,129.06,159.06,129.06,159.12,129.06z"/>
	<path fill-rule="evenodd" clip-rule="evenodd" fill="#99CCB3" d="M69.3,133.02c-0.116,0.844,0.236,2.155-0.18,2.7
		c0-0.9,0-1.8,0-2.7C69.18,133.02,69.24,133.02,69.3,133.02z"/>
	<path fill-rule="evenodd" clip-rule="evenodd" fill="#D7EBE1" d="M297.361,131.4c-0.119,1.441,0.238,3.358-0.18,4.5
		c0-1.5,0-3,0-4.5C297.242,131.4,297.301,131.4,297.361,131.4z"/>
	<path fill-rule="evenodd" clip-rule="evenodd" fill="#99CCB3" d="M49.86,134.82c0,0.6,0,1.2,0,1.8
		C49.562,136.426,49.562,135.014,49.86,134.82z"/>
	<path fill-rule="evenodd" clip-rule="evenodd" fill="#1E8F57" d="M62.1,135.9c0-0.84,0-1.68,0-2.52
		C62.399,133.808,62.399,135.472,62.1,135.9z"/>
	<path fill-rule="evenodd" clip-rule="evenodd" fill="#53A97E" d="M312.842,137.16c0.6,0,1.199,0,1.799,0
		C314.447,137.458,313.035,137.458,312.842,137.16z"/>
	<path fill-rule="evenodd" clip-rule="evenodd" fill="#99CCB3" d="M194.76,137.34c0.72,0,1.44,0,2.16,0
		C196.61,137.639,195.071,137.639,194.76,137.34z"/>
	<path fill-rule="evenodd" clip-rule="evenodd" fill="#53A97E" d="M62.28,139.5c0.298,0.252,0.298,1.728,0,1.98
		C62.28,140.82,62.28,140.16,62.28,139.5z"/>
	<path fill-rule="evenodd" clip-rule="evenodd" fill="#FFFFFF" d="M83.88,115.38c-0.169-1.839,1.782-3.339,2.88-1.8
		c-0.164,1.533-1.233,3.675-1.08,6.12c-0.299,0.487-0.299,2.213,0,2.7c1.967,0.873,4.628-0.791,6.3,1.08
		c-0.62,1.633-2.034,0.997-3.96,0.72c-0.816,0.204-2.47-0.43-2.7,0.36c-0.06,1.38-0.393,2.487-0.36,3.96
		c-0.299,0.428-0.299,2.092,0,2.52c0.121,4.08,2.394,6.006,6.12,6.48c0.069,3.793-3.975,1.861-5.76,0.18
		c-1.855-1.748-2.412-4.763-2.34-7.02c0-0.84,0-1.68,0-2.52c0.002-1.378,0.104-2.656,0.36-3.78c-0.813-0.483-3.353-0.215-4.68-0.72
		c0.077,0.854-0.515,2.28-1.08,3.06c-5.78-2.165-7.512,6.979-5.58,11.52c-0.427,0.866-2.25,1.185-3.42,0.72
		c-0.125-1.385,0.63-1.889,0.54-3.24c0.416-0.545,0.063-1.856,0.18-2.7c0-1.32,0-2.64,0-3.96c-0.113-0.547,0.23-1.55-0.18-1.8
		c-0.054-1.986-0.273-3.807-0.54-5.58c0.41-0.911,1.976-1.757,3.06-0.9c0.141,1.461-0.422,2.218-0.54,3.42
		c-0.299,0.784-0.299,2.815,0,3.6c0.034,0.146,0.181,0.179,0.18,0.36c1.397-2.323,3.289-4.151,6.48-4.68
		c0.549-0.05,0.395-0.805,0.9-0.9c1.852-0.008,3.476-0.244,4.5-1.08c0.159-1.281,0.578-2.302,0.54-3.78
		C84.114,117.294,83.765,116.104,83.88,115.38z"/>
	<path fill-rule="evenodd" clip-rule="evenodd" fill="#FFFFFF" d="M55.44,120.24c0.6,0,1.2,0,1.8,0c1.211,0.146,2.092,0.54,2.7,1.08
		c1.584,1.41,1.443,3.499,1.98,5.76c0.16,0.674,0.313,1.248,0.9,1.62c-0.169,0.671-0.743,0.937-0.54,1.98
		c-0.415,0.485-0.063,1.736-0.18,2.52c0,0.06,0,0.12,0,0.18c0,0.84,0,1.68,0,2.52c-0.459,1.136,0.222,2.32,0.18,3.6
		c0,0.66,0,1.32,0,1.98c0,0.06,0,0.12,0,0.18c-0.701,0.59-1.734,1.499-3.06,0.9c-0.369-2.348,1.086-2.873,0.72-5.22
		c-2.455,1.086-8.036,3.158-10.08-0.36c0-0.12,0-0.24,0-0.36c0-0.6,0-1.2,0-1.8c1.417-4.224,5.948-5.332,10.08-6.84
		c0.564-3.405-1.391-5.468-4.32-5.94c-0.547,0.113-1.551-0.23-1.8,0.18c-1.418-0.297-1.739,1.324-3.06,0.54
		C50.777,120.377,53.316,120.516,55.44,120.24z M51.66,135.18c1.396,5.011,11.748,0.52,7.92-4.86
		C55.864,129.639,50.823,132.175,51.66,135.18z"/>
	<path fill-rule="evenodd" clip-rule="evenodd" fill="#FFFFFF" d="M126.9,126.9c0.103-1.663-0.188-2.932-0.72-3.96
		c0.736-1.064,1.625-1.974,3.24-2.16c0.588,1.125-0.398,2.08-0.18,3.42c3.759-0.931,9.475-3.6,11.7,0.54
		c1.894,3.523-0.037,9.541-0.72,13.14c-0.249,1.311-0.033,2.643-0.9,3.24c-1.243,0.103-2.11-0.17-2.52-0.9
		c1.178-2.842,2.806-5.234,2.7-9.36c0.299-0.546,0.299-2.334,0-2.88c-0.232-2.167-1.178-3.622-3.42-3.78
		c-0.252-0.298-1.728-0.298-1.98,0c-3.808,0.332-5.573,2.707-5.04,7.38c-0.299,0.904-0.299,3.057,0,3.96
		c0.214,1.098,0.453,1.652,0.18,2.88c-0.98,0.686-2.363,1.235-3.24,0.18c0.513-2.187,1.048-4.353,0.9-7.2
		C127.2,130.317,127.2,127.983,126.9,126.9z"/>
	<path fill-rule="evenodd" clip-rule="evenodd" fill="#FFFFFF" d="M98.1,122.4c-1.553-0.155-3.24,1.282-2.88,3.24
		c0.506,2.756,7.362,2.112,8.46,5.22c1.958,5.544-4.155,10.089-9.9,8.1c-0.155-0.685-0.488-1.192-0.36-2.16
		c4.17,2.361,10.296-0.054,8.28-4.68c-1.305-2.993-6.572-1.937-8.1-5.04c-0.396-4.477,2.039-6.121,6.12-6.12c0.78,0,1.56,0,2.34,0
		c0.16-0.14,0.407-0.193,0.72-0.18c0.374,0.786,0.129,1.886-0.18,2.52c-0.768,0.286-1.545-0.81-2.52-0.9
		C99.828,122.102,98.352,122.102,98.1,122.4z"/>
	<path fill-rule="evenodd" clip-rule="evenodd" fill="#FFFFFF" d="M116.28,139.5c-9.379,0.366-12.084-8.423-7.56-14.4
		c1.456-1.923,4.825-4.333,8.64-3.96c3.219,0.314,4.72,3.787,3.78,7.38c-1.872,0.527-4.112-0.406-6.48,0
		c-1.082,0.118-2.637-0.237-3.42,0.18c-0.853-0.133-1.238,0.203-1.98,0.18c-3.164,6.782,5.874,10.393,11.88,7.56
		c0.563,1.53-0.342,2.646-1.26,3.24c-0.18,0-0.36,0-0.54,0C118.676,139.264,117.243,139.618,116.28,139.5z M116.46,127.08
		c1.122,0.042,2.229,0.069,2.7-0.54c0.166-7.031-8.856-3.103-9.54,0.54c0.04,0.14,0.151,0.209,0.36,0.18
		c0.194,0.298,1.606,0.298,1.8,0c0.36,0,0.72,0,1.08,0c0.6,0,1.2,0,1.8,0C115.207,127.147,116.21,127.491,116.46,127.08z"/>
	<path fill-rule="evenodd" clip-rule="evenodd" fill="#D7EBE1" d="M178.92,111.6c0.414,0.426,0.064,1.616,0.18,2.34
		C178.686,113.514,179.036,112.325,178.92,111.6z"/>
	<path fill-rule="evenodd" clip-rule="evenodd" fill="#D7EBE1" d="M158.94,115.2c0.419,3.3,0.06,7.38,0.18,10.98
		c-0.06,0-0.12,0-0.18,0C158.94,122.52,158.94,118.86,158.94,115.2z"/>
	<path fill-rule="evenodd" clip-rule="evenodd" fill="#D7EBE1" d="M208.621,115.92c0,6.72,0,13.44,0,20.16
		C208.321,129.78,208.321,122.22,208.621,115.92z"/>
	<path fill-rule="evenodd" clip-rule="evenodd" fill="#D7EBE1" d="M179.1,121.5c0.3,3.781,0.3,8.82,0,12.6
		C179.1,129.9,179.1,125.7,179.1,121.5z"/>
	<path fill-rule="evenodd" clip-rule="evenodd" fill="#D7EBE1" d="M306.541,128.16c0,1.2,0,2.4,0,3.6
		C306.242,130.976,306.242,128.944,306.541,128.16z"/>
	<path fill-rule="evenodd" clip-rule="evenodd" fill="#D7EBE1" d="M299.162,129.06c0,1.92,0,3.84,0,5.76
		C298.861,133.318,298.861,130.562,299.162,129.06z"/>
	<path fill-rule="evenodd" clip-rule="evenodd" fill="#D7EBE1" d="M333.002,130.14c-0.119,1.921,0.238,4.319-0.18,5.94
		C332.941,134.159,332.582,131.761,333.002,130.14z"/>
	<path fill-rule="evenodd" clip-rule="evenodd" fill="#008040" d="M227.52,115.38c-0.033-1.62,1.591-3.128,2.88-1.8
		c-0.713,1.807-1.254,3.786-1.26,6.3c-0.298,0.31-0.298,1.849,0,2.16c0,0.18,0,0.36,0,0.54c1.882,0.66,4.787-0.682,6.3,0.9
		c-0.748,1.913-4.049,0.143-6.479,0.54c-1.336,5.961-0.812,13.597,5.58,13.5c0.358,2.993-2.944,2.18-4.86,0.72
		c-1.874-1.428-3.061-4.453-2.88-6.66c-0.113-0.547,0.23-1.55-0.18-1.8c0-0.18,0-0.36,0-0.54c0.412-0.308,0.065-1.374,0.18-1.98
		c-0.109-1.19,0.314-1.846,0.18-3.06c-1.034-0.411-3.839-0.109-5.04-0.9c1.055-1.286,4.379-0.302,5.04-1.98
		c0.102-0.979,0.475-1.686,0.36-2.88C227.756,117.776,227.403,116.343,227.52,115.38z"/>
	<path fill-rule="evenodd" clip-rule="evenodd" fill="#008040" d="M36.36,128.16c-2.308,0.085-5.02,0.597-7.56,0
		c1.008-4.068,4.031-8.005,6.3-11.7c2.483,2.917,3.433,7.367,5.04,11.16c-0.472,0.369-1.116,0.564-1.98,0.54
		C37.56,128.16,36.96,128.16,36.36,128.16z"/>
	<path fill-rule="evenodd" clip-rule="evenodd" fill="#008040" d="M325.082,122.04c-1.742-0.361-1.715,1.046-3.42,0.72
		c-0.01-2.168,2.262-2.058,4.139-2.34c0.84,0,1.682,0,2.521,0c3.379,0.521,4.332,3.468,4.318,7.38c-0.172,0.773,0.885,0.315,0.9,0.9
		c-0.02,0.64-0.666,0.654-0.539,1.44c-0.42,1.621-0.061,4.019-0.18,5.94c-0.51,2.026,0.604,3.399,0.18,5.58
		c-0.744,0.521-1.438,1.417-2.701,0.9c-0.836-2.075,1.406-3.271,0.541-5.4c-2.785,1.394-8.285,3.1-10.08-0.36
		c0.031-1.077-0.098-2.094,0.18-2.88c1.393-3.94,7.18-4.034,10.08-6.3c0.238-3.478-1.639-4.84-4.141-5.58
		C326.688,121.742,325.275,121.742,325.082,122.04z M322.201,134.64c0.135,3.157,5.203,3.645,7.381,1.62
		c1.615-1.503,2.285-4.015,0.719-6.12C326.936,129.813,322.066,131.436,322.201,134.64z"/>
	<path fill-rule="evenodd" clip-rule="evenodd" fill="#008040" d="M239.581,128.7c0.105-2.686-0.267-4.894-0.54-7.2
		c0.444-0.666,2.034-1.389,2.881-0.54c0.045,1.366-0.715,1.926-0.541,3.42c-0.299,0.546-0.299,2.333,0,2.88
		c-0.057,0.417,0.029,0.691,0.18,0.9c1.613-2.113,3.637-4.757,7.201-4.32c0.396,0.934-0.395,2.084-0.9,2.7
		c-5.793-1.974-7.445,6.862-5.76,11.88c-0.266,0.093-0.453,0.266-0.721,0.36c-0.34,0.319-1.188,0.131-1.8,0.18
		c-0.181,0-0.36,0-0.54,0c0.221-1.759,0.759-3.201,0.54-5.4C239.88,132.358,239.88,129.903,239.581,128.7z"/>
	<path fill-rule="evenodd" clip-rule="evenodd" fill="#008040" d="M297.182,128.16c0.557-3.582-2.145-7.364,2.16-7.38
		c0.57,2.683-0.352,5.399-0.18,8.28c-0.301,1.502-0.301,4.258,0,5.76c-0.217,1.897,0.918,2.442,0.898,4.14
		c-0.902,0.276-2.242,0.945-3.238,0.54c-0.641-1.289,0.414-2.309,0.359-3.6c0.418-1.142,0.061-3.059,0.18-4.5
		C297.244,130.377,297.598,128.883,297.182,128.16z"/>
	<path fill-rule="evenodd" clip-rule="evenodd" fill="#008040" d="M196.38,139.5c-3.479-0.837-6.353-0.917-8.101-2.88
		c-4.954-5.566,1.358-16.622,9.54-15.3c2.72,0.439,3.703,3.67,3.421,7.02c-3.51,0.638-9.693-0.978-12.601,1.08
		c-0.92,4.894,2.006,7.465,6.12,7.92c0.311,0.298,1.85,0.298,2.16,0c1.948,0.328,2.766-0.474,4.14-0.72
		c0.146,1.286-0.191,2.088-0.72,2.7c-0.432,0.109-0.821,0.259-1.44,0.18C198.06,139.5,197.22,139.5,196.38,139.5z M193.86,127.26
		c1.808-0.112,4.185,0.344,5.221-0.54c0.875-7.289-9.641-3.363-9.54,0.54c0.06,0,0.12,0,0.18,0
		C190.684,127.56,192.897,127.56,193.86,127.26z"/>
	<path fill-rule="evenodd" clip-rule="evenodd" fill="#008040" d="M214.38,126c1.648-1.313,2.047-4.764,4.86-4.32
		c0.348,0.438,0.173,1.506,0,1.98c-0.213,0.207-0.637,0.204-1.08,0.18c-1.061,0.56-1.751,1.489-2.521,2.34
		c-0.344,0.496-0.764,0.916-1.26,1.26c-0.061,0-0.12,0-0.18,0c-0.735,0.585-1.396,1.245-1.98,1.98c0,0.06,0,0.12,0,0.18
		c-0.162,0.318-0.435,0.525-0.54,0.9c1.68,0.985,5.384,4.229,7.92,5.22c1.286,0.503,2.597,0.211,2.7,1.44
		c0.076,0.91-1.08,1.516-1.8,1.98c-3.528-2.712-7.177-5.304-11.34-7.38c0.109-2.111,2.023-2.416,3.06-3.6
		C213.015,127.515,213.736,126.795,214.38,126z"/>
	<path fill-rule="evenodd" clip-rule="evenodd" fill="#008040" d="M314.641,137.16c1.668,0.259,2.832-0.849,3.602-0.9
		c0.342,0.326,0.877,1.392,0.359,1.98c-5.682,2.342-12.852,0.189-13.68-5.4c-0.725-4.885,1.693-8.312,5.4-10.44
		c1.484-0.195,2.742-0.617,4.318-0.72c1.08,0,2.16,0,3.24,0c0.061,0,0.121,0,0.18,0c0.209,0.213,0.205,0.636,0.182,1.08
		c-0.41,0.25-0.068,1.253-0.182,1.8c-1.789-0.498-3.443-1.481-5.578-1.26c-1.584,0.164-2.615,1.346-3.961,1.62
		c-0.691,1.048-1.527,1.952-1.98,3.24c-0.299,0.784-0.299,2.816,0,3.6c0.68,3.221,2.646,5.154,6.301,5.4
		C313.035,137.458,314.447,137.458,314.641,137.16z"/>
	<path fill-rule="evenodd" clip-rule="evenodd" fill="#008040" d="M270.002,129.78c-0.477,6.547-6.523,10.047-13.5,9.18
		c-2.311-0.287-5.406-2.294-5.941-5.04c-0.395-2.03,0.225-5.258,1.08-7.021c1.477-3.039,5.348-4.746,9.361-5.04
		c0.6,0,1.199,0,1.799,0c3.994,0.267,6.389,2.131,7.201,5.58C270.002,128.22,270.002,129,270.002,129.78z M253.262,134.46
		c0.811,1.51,3.25,3.051,5.039,3.24c4.637,0.49,9.063-2.433,9.721-7.02c0.709-4.934-4.439-9.316-8.82-7.56
		c-0.906,0.363-1.439,1.542-2.699,1.08C253.477,125.556,251.209,130.643,253.262,134.46z"/>
	<path fill-rule="evenodd" clip-rule="evenodd" fill="#008040" d="M109.98,127.26c-0.209,0.029-0.32-0.04-0.36-0.18
		c0.684-3.643,9.706-7.571,9.54-0.54c-0.471,0.609-1.578,0.582-2.7,0.54c-0.6,0-1.2,0-1.8,0c-0.547,0.113-1.55-0.23-1.8,0.18
		c-0.36,0-0.72,0-1.08,0C111.18,127.26,110.58,127.26,109.98,127.26z"/>
	<path fill-rule="evenodd" clip-rule="evenodd" fill="#008040" d="M59.58,130.32c3.828,5.38-6.524,9.871-7.92,4.86
		C50.823,132.175,55.864,129.639,59.58,130.32z"/>
	<path fill-rule="evenodd" clip-rule="evenodd" fill="#99CCB3" d="M297.182,128.16c0.416,0.723,0.063,2.217,0.18,3.24
		c-0.061,0-0.119,0-0.18,0C297.182,130.32,297.182,129.24,297.182,128.16z"/>
	<path fill-rule="evenodd" clip-rule="evenodd" fill="#99CCB3" d="M239.581,128.7c0.3,1.203,0.3,3.658,0,4.86
		C239.581,131.94,239.581,130.32,239.581,128.7z"/>
	<path fill-rule="evenodd" clip-rule="evenodd" fill="#99CCB3" d="M277.561,131.58c0,1.32,0,2.64,0,3.96
		C277.262,134.637,277.262,132.484,277.561,131.58z"/>
	<path fill-rule="evenodd" clip-rule="evenodd" fill="#99CCB3" d="M116.28,139.5c0.962,0.118,2.396-0.236,3.06,0.18
		C118.377,139.563,116.944,139.917,116.28,139.5z"/>
</g>
</svg>
