<?xml version="1.0" encoding="utf-8"?>
<!-- Generator: Adobe Illustrator 15.1.0, SVG Export Plug-In . SVG Version: 6.00 Build 0)  -->
<!DOCTYPE svg PUBLIC "-//W3C//DTD SVG 1.1//EN" "http://www.w3.org/Graphics/SVG/1.1/DTD/svg11.dtd">
<svg version="1.1" id="Layer_2" xmlns="http://www.w3.org/2000/svg" xmlns:xlink="http://www.w3.org/1999/xlink" x="0px" y="0px"
	 width="333.541px" height="147.42px" viewBox="0 0 333.541 147.42" enable-background="new 0 0 333.541 147.42"
	 xml:space="preserve">
<rect fill="#008040" width="147.24" height="147.421"/>
<g>
	<path fill="#FFFFFF" d="M36.495,112.776c1.002,3.451,4.155,10.875,9.456,22.271c0.713,1.063,1.07,1.964,1.07,2.701
		c0,0.176-0.06,0.332-0.179,0.47c-0.119,0.138-0.557,0.318-1.313,0.544c-0.757,0.225-1.254,0.388-1.492,0.487
		c-0.188-0.225-0.281-0.443-0.281-0.656c0-0.188,0.025-0.4,0.075-0.638l0.094-0.281c0-0.412-0.204-1.263-0.612-2.551
		s-1.106-2.927-2.093-4.916c-0.1-0.051-0.203-0.191-0.31-0.423c-0.106-0.231-0.372-0.348-0.797-0.348
		c-0.237,0-0.469,0.119-0.694,0.357c-0.038-0.101-0.3-0.194-0.788-0.282l-0.563-0.149h-0.563c-1.276,0-2.161,0.071-2.654,0.215
		c-0.494,0.145-0.753,0.216-0.778,0.216c-0.175,0-0.313-0.094-0.413-0.281c-0.775,0.213-1.348,0.294-1.716,0.244
		s-0.734-0.075-1.097-0.075c-0.826,0-1.592,0.098-2.298,0.291c-0.707,0.194-1.163,0.294-1.37,0.3
		c-0.207,0.007-0.403,0.166-0.591,0.479l-0.263-0.188c-1.276,2.639-2.226,4.715-2.851,6.229c-0.075,0.938-0.272,1.736-0.591,2.393
		s-0.61,0.985-0.873,0.985h-0.038c-0.425-0.176-1.294-0.382-2.608-0.619c-0.2-0.038-0.3-0.15-0.3-0.338
		c0-0.413,0.219-0.798,0.656-1.154c0.438-0.356,0.688-0.628,0.75-0.815c0.413-0.775,0.788-1.313,1.126-1.614
		c0.451-0.537,1.017-1.422,1.7-2.653c0.682-1.231,1.243-2.06,1.681-2.485c0.012-0.55,0.61-1.731,1.794-3.545
		c1.183-1.813,2.207-3.513,3.071-5.101c0.864-1.588,1.346-2.444,1.446-2.57c1.731-2.49,2.597-4.187,2.597-5.088v-0.075
		c0.288,0,0.431-0.063,0.431-0.188v-0.188c0-0.463,0.307-0.964,0.919-1.502l0.263,0.113c0.325-0.413,0.582-0.62,0.769-0.62
		c0.226,0,0.338,0.169,0.338,0.507C36.607,112.433,36.569,112.613,36.495,112.776z M37.412,128.18c0.35-0.1,0.712-0.15,1.088-0.15
		c0.862-0.162,1.294-0.406,1.294-0.731c0-0.024-0.725-1.876-2.175-5.554c-1.45-3.677-2.4-5.516-2.85-5.516
		c-0.313,0-0.923,0.869-1.83,2.608c-0.907,1.738-1.923,3.523-3.049,5.356c-1.126,1.832-1.689,2.955-1.689,3.367
		c0,0.288,0.188,0.481,0.563,0.582c0.375,0.1,0.594,0.149,0.656,0.149l0.357-0.037c0.212,0,0.5,0.031,0.862,0.094
		c0.363,0.063,0.613,0.094,0.75,0.094c0.3,0,0.791-0.05,1.472-0.15c0.682-0.1,1.11-0.149,1.285-0.149s0.388,0.025,0.638,0.075
		s0.413,0.074,0.488,0.074c0.175,0,0.3-0.087,0.375-0.263c0.313,0.101,0.594,0.15,0.844,0.15l0.582-0.037
		C37.211,128.143,37.324,128.155,37.412,128.18z"/>
	<path fill="#FFFFFF" d="M62.442,128.63c0,0.101-0.084,0.238-0.253,0.413c-0.168,0.175-0.285,0.331-0.347,0.469
		c-0.063,0.138-0.113,0.504-0.15,1.098c-0.038,0.595-0.056,1.473-0.056,2.636l0.075,2.533c0,0.138-0.057,0.257-0.169,0.356
		c-0.025,0.138-0.038,0.369-0.038,0.694c0,0.463,0.075,1.051,0.225,1.764l0.207,0.994l-0.038,0.92l0.038,0.807
		c-0.901,0.9-1.57,1.351-2.008,1.351c-0.063,0-0.181-0.044-0.356-0.132c-0.175-0.087-0.337-0.131-0.488-0.131h-0.112
		c-0.101-0.351-0.15-0.663-0.15-0.938c0-0.612,0.144-1.2,0.432-1.764c0.138-0.175,0.241-0.313,0.31-0.412
		c0.069-0.101,0.103-0.476,0.103-1.126c0-0.713-0.075-1.069-0.225-1.069c-0.025,0-0.103,0.025-0.234,0.075s-0.272,0.075-0.422,0.075
		h-0.15c-0.15,0.1-0.244,0.231-0.281,0.394c-0.15-0.013-0.97,0.27-2.458,0.845c-0.726,0.25-1.426,0.375-2.101,0.375
		c-0.738,0-1.401-0.097-1.989-0.291c-0.588-0.193-1.082-0.481-1.482-0.863c-0.4-0.381-0.66-0.666-0.778-0.854
		c-0.119-0.188-0.179-0.594-0.179-1.22l0.038-0.469v-0.15c0-1.25,0.973-2.563,2.917-3.939s3.762-2.208,5.451-2.495
		c0.45-0.075,0.8-0.153,1.05-0.235c0.25-0.081,0.46-0.215,0.628-0.403c0.169-0.188,0.253-0.619,0.253-1.294
		c0-2.227-1.176-3.74-3.527-4.541c-0.075-0.024-0.178-0.074-0.31-0.149s-0.247-0.113-0.347-0.113c-1.213,0-2.227,0.051-3.04,0.15
		c-0.45,0.514-0.951,0.77-1.501,0.77c-0.413,0-0.619-0.144-0.619-0.432c0-0.013,0.09-0.278,0.272-0.798
		c0.181-0.519,0.616-0.778,1.304-0.778c0.788-0.425,2.226-0.638,4.315-0.638c1.676,0,2.977,0.65,3.902,1.951
		s1.389,3.158,1.389,5.572v0.263c0.1,0.163,0.275,0.281,0.525,0.356c0.25,0.075,0.375,0.188,0.375,0.338V128.63z M58.746,135.291
		c0.788-1.063,1.182-2.014,1.182-2.853c0-0.513-0.128-1.069-0.384-1.67c-0.257-0.6-0.767-0.9-1.529-0.9
		c-1.476,0-2.677,0.369-3.602,1.107h-0.469c-1.926,1.063-2.889,2.188-2.889,3.377c0,0.838,0.397,1.542,1.191,2.11
		c0.794,0.569,1.716,0.854,2.767,0.854c0.275,0,0.8-0.118,1.576-0.356c0.775-0.237,1.495-0.682,2.158-1.332V135.291z"/>
	<path fill="#FFFFFF" d="M78.296,124.259c0,0.125-0.088,0.335-0.263,0.628c-0.175,0.295-0.294,0.569-0.356,0.826
		c-0.063,0.256-0.225,0.516-0.488,0.778H76.72c-0.65-0.388-1.132-0.581-1.445-0.581c-0.225,0-0.594,0.131-1.107,0.394
		c-0.513,0.263-1.007,0.729-1.482,1.397c-0.476,0.67-0.782,1.198-0.919,1.586c-0.063,0.425-0.263,0.875-0.6,1.351v0.619
		c-0.238,0.613-0.338,1.06-0.3,1.342c0.038,0.281,0.056,0.497,0.056,0.646c0,0.163-0.013,0.295-0.038,0.395
		c-0.15,0.15-0.225,0.3-0.225,0.45c0,0.313,0.066,0.863,0.197,1.651s0.347,1.388,0.647,1.801v0.169c0,0.563-0.231,0.844-0.694,0.844
		l-0.375,0.376c-0.313,0.024-0.65,0.037-1.013,0.037c-0.463,0-0.87-0.063-1.219-0.188v-0.075c0-0.338,0.103-0.831,0.31-1.482
		c0.206-0.649,0.31-1.145,0.31-1.481l0.112-4.409c0-3.427-0.188-6.448-0.563-9.063c-0.037-0.274-0.056-0.432-0.056-0.469
		c0-0.476,0.228-0.838,0.685-1.088c0.456-0.25,0.854-0.375,1.191-0.375c0.3,0,0.582,0.074,0.844,0.225
		c0.025,0.05,0.072,0.138,0.141,0.263c0.068,0.125,0.103,0.206,0.103,0.244v0.225c0,0.188-0.109,0.607-0.328,1.258
		c-0.219,0.65-0.329,1.476-0.329,2.477l0.038,2.308v0.337c0,0.188,0.169,0.319,0.507,0.395c0.525-1.163,1.154-2.079,1.885-2.749
		c0.732-0.669,1.635-1.153,2.711-1.454c1.076-0.3,1.757-0.45,2.045-0.45c0.325,0.226,0.488,0.432,0.488,0.619V124.259z"/>
	<path fill="#FFFFFF" d="M89.291,122.251c0.012,0.074,0.087,0.14,0.225,0.195c0.137,0.056,0.212,0.084,0.225,0.084h0.206
		c0.413,0,0.77,0.093,1.07,0.279c0.3,0.186,0.45,0.396,0.45,0.633c0,0.248-0.175,0.489-0.525,0.726l-0.225-0.242
		c-0.175,0.31-0.476,0.502-0.901,0.577l-0.112-0.226l-0.225,0.075c-0.551-0.25-1.113-0.375-1.688-0.375l-1.764,0.075
		c-0.25,0-0.625-0.025-1.126-0.075c-0.325,2.43-0.488,4.34-0.488,5.73c0,0.514,0.028,1.111,0.084,1.794s0.166,1.24,0.329,1.672
		c0.162,0.433,0.325,0.83,0.488,1.193c0.162,0.363,0.438,0.724,0.825,1.08c0.388,0.357,0.748,0.611,1.079,0.761
		c0.331,0.15,0.619,0.36,0.863,0.63c0.244,0.27,0.879,0.404,1.904,0.404h0.375c0.237,0.188,0.356,0.344,0.356,0.469
		c0,0.138-0.091,0.351-0.272,0.638c-0.182,0.288-0.326,0.531-0.432,0.731c-0.106,0.2-0.285,0.419-0.535,0.657h-0.075
		c-0.063,0-0.112-0.038-0.15-0.112c-0.438,0-0.826-0.051-1.164-0.15c0,0.024-0.012,0.037-0.037,0.037
		c-0.025,0-0.084-0.034-0.178-0.104c-0.094-0.069-0.185-0.122-0.272-0.159c-0.087-0.176-0.269-0.332-0.544-0.47
		c-0.563-0.2-1.085-0.495-1.566-0.883c-0.482-0.389-0.979-0.939-1.492-1.653c-0.513-0.713-0.835-1.371-0.966-1.973
		c-0.131-0.601-0.238-1.323-0.319-2.169c-0.082-0.846-0.122-1.75-0.122-2.715c0-1.628,0.119-3.418,0.356-5.372l-0.394-0.131
		l-0.112,0.244H82.18l-0.075-0.244c-2.902-0.111-4.353-0.39-4.353-0.834c0-0.16,0.091-0.306,0.272-0.436
		c0.181-0.129,0.709-0.194,1.585-0.194h0.731l0.788-0.188c0.288-0.063,0.569-0.175,0.844-0.338c0.275-0.162,0.516-0.362,0.722-0.601
		c0.207-0.237,0.397-1.069,0.572-2.495c0.113-0.875,0.169-1.808,0.169-2.795v-0.77c0-0.237,0.087-0.575,0.263-1.014
		c0.175-0.438,0.391-0.781,0.647-1.031c0.256-0.25,0.441-0.376,0.553-0.376c0.25,0,0.513,0.048,0.788,0.142
		c0.275,0.094,0.432,0.159,0.469,0.196c0.038,0.038,0.081,0.135,0.131,0.291c0.05,0.156,0.112,0.278,0.188,0.366v0.075
		c0,0.05-0.047,0.087-0.141,0.112s-0.153,0.05-0.178,0.075c-0.025,0.025-0.047,0.05-0.066,0.075
		c-0.019,0.024-0.109,0.362-0.272,1.013s-0.3,1.301-0.413,1.951c-0.113,0.65-0.2,1.288-0.263,1.914
		c-0.063,0.625-0.094,1.244-0.094,1.857c0,0.875,0.038,1.369,0.112,1.481c0.075,0.113,0.181,0.169,0.319,0.169
		c0.063,0,0.222-0.04,0.479-0.122c0.256-0.081,0.491-0.121,0.704-0.121c0.113,0,0.207,0.012,0.282,0.037l0.225,0.469
		c0.075,0.025,0.175,0.038,0.3,0.038c0.138,0,0.404-0.085,0.797-0.254C88.662,122.41,89.002,122.301,89.291,122.251z"/>
	<path fill="#FFFFFF" d="M101.973,129.174c0.976,0.876,1.463,1.927,1.463,3.152c0,1.589-0.491,3.03-1.473,4.324
		c-0.982,1.295-2.249,2.067-3.799,2.317c-0.337,0-0.813,0.025-1.426,0.075c-0.463,0.188-0.951,0.281-1.463,0.281
		c-0.675,0-1.207-0.138-1.595-0.413c-0.388-0.274-0.582-0.818-0.582-1.632c0-0.237,0.012-0.419,0.038-0.544h0.15
		c0.25,0,0.488,0.065,0.713,0.197c0.225,0.131,0.369,0.196,0.432,0.196l0.112-0.037c0.425,0.413,1.145,0.619,2.158,0.619
		c0.963,0,1.839-0.172,2.627-0.517c0.788-0.344,1.372-0.917,1.754-1.719c0.381-0.801,0.572-1.521,0.572-2.159
		c0-0.927-0.353-1.696-1.059-2.311c-0.706-0.613-2.298-1.299-4.775-2.058c-0.375-0.062-0.62-0.143-0.732-0.243l-0.863-0.75
		c-0.463-0.388-0.763-0.775-0.9-1.164l-0.188-0.581c0-1.977,0.572-3.38,1.716-4.212s3.118-1.248,5.919-1.248l1.051,0.057
		c0.063,0,0.188-0.031,0.375-0.094c0.2,0.2,0.3,0.481,0.3,0.844c0,0.413-0.069,0.804-0.206,1.173
		c-0.138,0.369-0.282,0.585-0.432,0.647c-0.113-0.226-0.244-0.395-0.394-0.507h-0.038c-0.038,0-0.094,0.022-0.169,0.065
		c-0.075,0.044-0.131,0.072-0.169,0.085c-0.588-0.663-1.32-0.994-2.195-0.994c-1.688,0-2.802,0.322-3.34,0.967
		s-0.807,1.361-0.807,2.15c-0.001,1.14,0.906,1.921,2.72,2.344c1.326,0.324,2.408,0.658,3.247,1.002
		C101.554,128.834,101.973,129.062,101.973,129.174z"/>
	<path fill="#FFFFFF" d="M120.979,126.791c0.1,0.101,0.15,0.244,0.15,0.432c0,0.363-0.1,0.632-0.3,0.807
		c0.025,0.013,0.038,0.051,0.038,0.113c0,0.2-0.27,0.3-0.807,0.3h-0.263c-0.075,0-0.15,0.044-0.225,0.132
		c-0.075,0.087-0.131,0.131-0.169,0.131c-0.012,0-0.072-0.037-0.178-0.112s-0.266-0.125-0.478-0.15l-0.225-0.225
		c-0.275,0.074-0.544,0.112-0.807,0.112c-0.2,0-0.479-0.025-0.835-0.075s-0.616-0.075-0.778-0.075c-0.138,0-0.429,0.038-0.873,0.112
		c-0.444,0.075-0.835,0.113-1.172,0.113l-1.839-0.075c-0.988,0-1.883,0.088-2.683,0.263c-0.112,0.063-0.278,0.109-0.497,0.141
		s-0.338,0.131-0.356,0.3s-0.147,0.304-0.385,0.403c-0.125,0.514-0.188,0.976-0.188,1.389c0,0.325,0.094,0.944,0.281,1.857
		c0.188,0.913,0.438,1.563,0.75,1.951c0.075,0.088,0.613,0.488,1.614,1.201c0.638,0.476,1.329,0.835,2.073,1.078
		c0.744,0.244,1.604,0.366,2.58,0.366c0.388,0,0.869-0.031,1.445-0.094l0.788-0.094h1.219c0.125,0,0.359-0.112,0.704-0.338
		c0.344-0.225,0.691-0.356,1.042-0.394c0.15,0.35,0.225,0.656,0.225,0.919c0,0.588-0.178,1.101-0.535,1.538
		c-0.356,0.438-0.767,0.657-1.229,0.657l-0.394-0.075l-1.182,0.037h-1.013c-0.476,0-1.645-0.2-3.508-0.6
		c-1.864-0.4-3.24-0.926-4.127-1.576c-0.888-0.65-1.539-1.492-1.951-2.523c-0.413-1.032-0.619-2.029-0.619-2.993
		c0-1.3,0.25-2.623,0.75-3.968c0.5-1.345,1.069-2.389,1.707-3.133c0.638-0.744,1.607-1.517,2.908-2.317
		c0.125-0.063,0.315-0.19,0.572-0.385c0.256-0.193,0.503-0.291,0.741-0.291l0.619,0.038c0.262-0.175,0.734-0.322,1.417-0.441
		c0.681-0.118,1.235-0.178,1.66-0.178c0.763,0,1.598,0.281,2.505,0.844c0.907,0.563,1.454,1.739,1.642,3.527
		c0.038,0.313,0.09,0.566,0.159,0.76c0.069,0.194,0.104,0.304,0.104,0.329C121.054,126.604,121.028,126.691,120.979,126.791z
		 M113.286,122.683c-0.075,0.112-0.432,0.319-1.069,0.619c-0.313,0.226-0.613,0.481-0.9,0.77c-0.288,0.288-0.569,0.598-0.844,0.929
		c-0.275,0.331-0.516,0.628-0.723,0.891c-0.206,0.263-0.366,0.46-0.479,0.591c-0.112,0.132-0.168,0.248-0.168,0.348
		c0,0.138,0.087,0.237,0.263,0.3l0.244,0.094h1.388l6.529-0.243c0.838,0,1.257-0.369,1.257-1.107c0-0.775-0.153-1.454-0.459-2.035
		c-0.307-0.582-1.11-1.042-2.411-1.38c-0.15,0-0.363-0.012-0.638-0.037c-0.275-0.024-0.476-0.037-0.6-0.037
		C114.562,122.383,114.099,122.482,113.286,122.683z"/>
	<path fill="#FFFFFF" d="M134.037,122.495c0.813-0.138,1.495-0.206,2.045-0.206c3.402,0,5.103,2.126,5.103,6.379
		c0,2.363-0.388,5.097-1.163,8.198c-0.351,1.339-0.525,2.233-0.525,2.684c0,0.1,0.025,0.199,0.075,0.3
		c-0.15,0.775-0.606,1.163-1.37,1.163c-0.45,0-0.86-0.125-1.229-0.375c-0.369-0.25-0.554-0.513-0.554-0.788
		c0-0.413,0.263-0.926,0.788-1.538c0.525-0.613,1.007-1.808,1.445-3.584c0.438-1.775,0.656-3.564,0.656-5.365
		c0-3.69-1.513-5.535-4.54-5.535c-1.188,0-2.305,0.244-3.349,0.731c-1.044,0.488-1.642,1.026-1.792,1.613
		c-0.113,0.126-0.282,0.251-0.507,0.376c-0.2,0.1-0.316,0.19-0.347,0.271c-0.031,0.082-0.097,1.029-0.197,2.843
		s-0.15,3.189-0.15,4.128v0.882c0,0.463,0.078,0.888,0.235,1.275c0.156,0.388,0.234,0.613,0.234,0.676l-0.038,0.656
		c0,0.413-0.072,0.741-0.216,0.985c-0.144,0.243-0.328,0.365-0.553,0.365h-0.075l-0.112,0.263c-0.15-0.05-0.257-0.075-0.319-0.075
		c-0.175,0-0.4,0.101-0.675,0.301h-0.094c-0.138,0-0.35-0.163-0.638-0.488c-0.413,0-0.619-0.156-0.619-0.469
		c0-0.275,0.087-0.507,0.263-0.694c0.162,0,0.35-0.822,0.563-2.467c0.212-1.645,0.319-3.73,0.319-6.257
		c0-3.277-0.269-5.147-0.807-5.61l-0.038-0.338c0-0.475,0.275-0.794,0.826-0.957c0.225-0.062,0.428-0.23,0.61-0.506
		c0.181-0.275,0.372-0.413,0.572-0.413h0.038c0.25-0.037,0.466-0.1,0.647-0.188c0.181-0.087,0.285-0.132,0.31-0.132
		c0.175,0,0.263,0.244,0.263,0.732c0,0.375-0.075,0.804-0.225,1.285s-0.225,0.785-0.225,0.91c0,0.188,0.065,0.35,0.197,0.487
		s0.297,0.206,0.498,0.206h0.112c0.35-0.337,0.538-0.506,0.563-0.506h0.056c1.201,0,2.107-0.244,2.721-0.732
		c0.112-0.012,0.25-0.034,0.413-0.065s0.269-0.047,0.319-0.047C133.849,122.683,134.012,122.558,134.037,122.495z"/>
</g>
<g>
	<path fill="#FFFFFF" d="M162.579,112.803c0.125,0,0.403,0.025,0.833,0.075s0.827,0.075,1.189,0.075l4.29-0.075l1.667,0.075
		c0.263,0,0.73-0.044,1.405-0.132c0.674-0.087,1.224-0.131,1.648-0.131c0.674,0,1.011,0.175,1.011,0.524
		c0,0.025-0.047,0.281-0.141,0.769c-0.093,0.486-0.236,0.79-0.43,0.908c-0.193,0.119-0.477,0.178-0.851,0.178
		c-0.101,0-0.475-0.024-1.122-0.075c-0.936-0.562-2.975-0.843-6.116-0.843c-0.549,0-1.216,0.016-2.001,0.047
		s-1.241,0.075-1.365,0.132c-0.125,0.056-0.256,0.134-0.393,0.233c-0.15,0.587-0.309,1.655-0.478,3.203
		c-0.168,1.549-0.253,2.423-0.253,2.623c0,0.574,0.087,1.108,0.262,1.602c0.175,0.493,0.278,0.908,0.309,1.245
		c0.031,0.337,0.327,0.506,0.888,0.506h0.299c0.137,0,0.218,0.013,0.243,0.037c0,0.013,0.087,0.072,0.262,0.179
		c0.174,0.105,0.38,0.159,0.617,0.159c0.237,0,0.604-0.025,1.103-0.075c0.498-0.05,0.872-0.075,1.122-0.075
		c0.062,0,0.174,0.013,0.336,0.038c0.162,0.024,0.287,0.037,0.374,0.037c0.361,0,0.648-0.087,0.86-0.263l1.01,0.094
		c0.212-0.112,0.916-0.212,2.112-0.3c0.024,0.075,0.037,0.194,0.037,0.356c0,0.112-0.013,0.278-0.037,0.496
		c-0.025,0.219-0.037,0.384-0.037,0.496c0,0.188,0.012,0.319,0.037,0.394c-0.175,0.563-0.655,0.843-1.439,0.843
		c-0.212,0-0.567-0.09-1.066-0.271c-0.499-0.181-1.016-0.271-1.552-0.271l-1.103,0.037c-0.275,0-0.755-0.03-1.44-0.093
		c-0.686-0.063-1.24-0.094-1.664-0.094h-0.542c-0.337,0.212-0.567,0.396-0.692,0.553c-0.125,0.156-0.256,0.624-0.393,1.404
		c-0.137,0.78-0.205,1.608-0.205,2.482c0,0.624,0.05,1.576,0.15,2.856c0.1,1.28,0.171,2.257,0.215,2.932
		c0.043,0.674,0.084,1.027,0.121,1.058c0.038,0.031,0.122,0.072,0.253,0.122c0.131,0.05,0.227,0.106,0.29,0.169l1.104,0.037
		c0.623,0,1.49-0.044,2.6-0.131l1.627-0.132l0.523,0.057c0.162,0.013,0.381,0.019,0.655,0.019c1.06,0,2.631-0.218,4.713-0.655
		c0.374-0.2,0.63-0.3,0.767-0.3c0.15,0,0.225,0.125,0.225,0.375l-0.187,0.73l0.037,0.655c0,0.449-0.106,0.728-0.318,0.833
		c-0.213,0.106-0.644,0.16-1.293,0.16c-0.475,0-1.229-0.038-2.267-0.113c-1.099-0.199-2.185-0.299-3.259-0.299l-4.683,0.074h-0.637
		c-0.212-0.124-0.344-0.188-0.394-0.188c-0.087,0-0.159,0.038-0.215,0.113c-0.056,0.074-0.141,0.093-0.253,0.056
		s-0.2-0.056-0.262-0.056c-0.175,0-0.337,0.074-0.487,0.225c-0.325,0.037-0.581,0.155-0.768,0.355h-0.131
		c-0.212,0-0.387-0.094-0.524-0.281c0.125-0.162,0.188-0.312,0.188-0.449l-0.038-0.318c0-0.162,0.038-0.3,0.112-0.412
		c-0.05-0.024-0.075-0.075-0.075-0.149c0-0.063,0.019-0.244,0.056-0.544c0.25-2.098,0.375-4.258,0.375-6.48l-0.038-3.766
		l0.075-2.641v-0.918l0.038-4.964c0-1.211-0.038-2.26-0.113-3.147c-0.212-0.736-0.318-1.192-0.318-1.367
		c0-0.124,0.063-0.228,0.188-0.309c0.125-0.081,0.662-0.247,1.611-0.497l0.075-0.243l0.318,0.169l0.262-0.075
		C161.83,112.466,162.192,112.578,162.579,112.803z"/>
	<path fill="#FFFFFF" d="M182.547,137.36c-0.113,0.387-0.21,0.631-0.291,0.73s-0.277,0.162-0.59,0.188
		c-0.149,0.149-0.287,0.225-0.412,0.225c-0.1,0-0.206-0.075-0.318-0.225c-0.162,0.162-0.375,0.299-0.637,0.412
		c-0.975-0.275-1.461-0.631-1.461-1.068v-0.037c0.199,0,0.3-0.181,0.3-0.543v-0.338l-0.038-0.618c0-0.087,0.075-0.381,0.225-0.88
		c0.188-1.323,0.281-3.116,0.281-5.376v-3.84l-0.037-1.442l0.037-1.236l-0.225-4.327l0.149-2.997l-0.149-3.877v-0.731
		c-0.162-0.424-0.243-0.843-0.243-1.255l0.074-0.805c0-0.088-0.05-0.206-0.149-0.356c0-0.674,0.109-1.208,0.328-1.602
		c0.218-0.394,0.486-0.696,0.805-0.908s0.634-0.318,0.946-0.318c0.537,0,1.005,0.524,1.405,1.573
		c-0.288,0.362-0.519,0.721-0.693,1.077c-0.175,0.355-0.263,0.877-0.263,1.564l0.075,2.153l-0.075,5.357l0.038,7.324l-0.075,8.336
		l0.037,0.337c0,0.2-0.05,0.331-0.149,0.394c0.188,0.162,0.309,0.546,0.365,1.151c0.056,0.606,0.181,1.059,0.375,1.358
		C182.375,137.061,182.496,137.26,182.547,137.36z"/>
	<path fill="#FFFFFF" d="M201.653,126.458c0.1,0.101,0.149,0.244,0.149,0.431c0,0.362-0.1,0.631-0.299,0.806
		c0.024,0.013,0.037,0.05,0.037,0.112c0,0.2-0.269,0.3-0.806,0.3h-0.262c-0.075,0-0.15,0.044-0.226,0.131
		c-0.074,0.088-0.131,0.132-0.168,0.132c-0.013,0-0.072-0.038-0.178-0.112c-0.106-0.075-0.266-0.125-0.479-0.15l-0.225-0.225
		c-0.274,0.075-0.543,0.112-0.805,0.112c-0.2,0-0.479-0.024-0.834-0.075c-0.355-0.05-0.615-0.074-0.777-0.074
		c-0.138,0-0.428,0.037-0.871,0.112c-0.443,0.074-0.834,0.112-1.171,0.112l-1.836-0.075c-0.986,0-1.879,0.088-2.678,0.263
		c-0.113,0.063-0.278,0.109-0.497,0.141s-0.337,0.131-0.355,0.299c-0.019,0.169-0.147,0.304-0.384,0.403
		c-0.125,0.512-0.188,0.974-0.188,1.386c0,0.325,0.094,0.943,0.281,1.854c0.187,0.912,0.437,1.562,0.749,1.948
		c0.074,0.088,0.611,0.487,1.61,1.199c0.637,0.475,1.327,0.833,2.07,1.076c0.742,0.244,1.602,0.366,2.575,0.366
		c0.387,0,0.868-0.031,1.442-0.094l0.787-0.094h1.218c0.124,0,0.358-0.112,0.702-0.338c0.343-0.225,0.689-0.355,1.039-0.393
		c0.15,0.35,0.226,0.655,0.226,0.918c0,0.587-0.179,1.099-0.534,1.535c-0.356,0.438-0.766,0.656-1.227,0.656l-0.394-0.075
		l-1.181,0.037h-1.011c-0.476,0-1.643-0.199-3.503-0.599c-1.861-0.4-3.234-0.925-4.121-1.574c-0.887-0.648-1.536-1.489-1.948-2.52
		c-0.412-1.029-0.618-2.025-0.618-2.987c0-1.299,0.25-2.619,0.749-3.962c0.5-1.342,1.068-2.385,1.705-3.128s1.604-1.514,2.903-2.313
		c0.125-0.063,0.315-0.19,0.571-0.384s0.502-0.29,0.74-0.29l0.617,0.037c0.263-0.175,0.734-0.321,1.415-0.44
		c0.68-0.118,1.232-0.178,1.657-0.178c0.762,0,1.596,0.281,2.501,0.843c0.905,0.563,1.451,1.736,1.639,3.521
		c0.038,0.313,0.091,0.565,0.159,0.759s0.104,0.303,0.104,0.328C201.729,126.271,201.703,126.358,201.653,126.458z M193.974,122.356
		c-0.075,0.112-0.431,0.318-1.068,0.618c-0.312,0.225-0.611,0.48-0.898,0.768c-0.288,0.287-0.568,0.597-0.843,0.927
		c-0.275,0.331-0.516,0.628-0.722,0.891c-0.206,0.262-0.365,0.459-0.478,0.59s-0.169,0.246-0.169,0.347
		c0,0.137,0.088,0.237,0.263,0.3l0.243,0.093h1.387l6.519-0.243c0.836,0,1.255-0.368,1.255-1.105c0-0.773-0.153-1.451-0.459-2.032
		c-0.307-0.58-1.108-1.039-2.407-1.377c-0.149,0-0.362-0.012-0.637-0.037c-0.274-0.024-0.475-0.037-0.6-0.037
		C195.247,122.057,194.785,122.156,193.974,122.356z"/>
	<path fill="#FFFFFF" d="M209.782,110.274c0,0.125-0.013,0.25-0.037,0.374c-0.163,0.075-0.256,0.169-0.281,0.281
		s-0.1,0.412-0.225,0.899s-0.225,1.482-0.3,2.987s-0.112,2.601-0.112,3.288v3.371l-0.037,8.167c0,1.212,0.015,2.579,0.046,4.103
		s0.101,2.423,0.206,2.697c0.106,0.274,0.203,0.462,0.291,0.562c-0.038,0.85-0.256,1.274-0.656,1.274l-0.393-0.038
		c-0.063,0-0.19,0.031-0.385,0.094c-0.193,0.063-0.384,0.094-0.571,0.094c-0.25,0-0.465-0.109-0.646-0.328
		c-0.182-0.218-0.271-0.502-0.271-0.852c0-0.101,0.037-0.206,0.112-0.318c0.287,0,0.431-2.329,0.431-6.987l-0.112-10.921
		l0.187-5.881l-0.131-0.956c-0.087-0.674-0.131-1.236-0.131-1.686c0-0.263,0.037-0.53,0.112-0.806
		c0.911-0.462,1.536-0.693,1.873-0.693c0.162,0,0.3,0.063,0.412,0.188c0.112,0.125,0.281,0.406,0.506,0.843
		c0.075,0,0.112,0.032,0.112,0.094V110.274z M219.261,123.424c-0.075-0.025-0.188-0.037-0.338-0.037
		c-0.187,0-0.334,0.021-0.439,0.065c-0.106,0.044-0.59,0.484-1.45,1.321l-2.544,2.438c-0.836,0.801-1.45,1.42-1.843,1.857
		s-0.593,0.73-0.598,0.878c-0.001,0.185,0.617,0.664,1.854,1.438l3.016,2.004c0.975,0.637,1.779,1.107,2.416,1.413
		c0.638,0.307,1.249,0.484,1.836,0.534c0.337,0.037,0.706,0.294,1.105,0.769c0.237,0.262,0.355,0.524,0.355,0.786
		c0,0.287-0.138,0.521-0.412,0.702c-0.274,0.182-0.456,0.316-0.543,0.403c-0.2,0.487-0.519,0.73-0.955,0.73
		c-0.113,0-0.27-0.025-0.469-0.075v-0.037c0-0.138-0.213-0.399-0.637-0.786c-0.425-0.388-1.127-0.925-2.107-1.611
		s-2.454-1.642-4.421-2.866c-1.967-1.224-3.006-1.842-3.118-1.854l-0.524-0.057c0-0.911,0.368-1.704,1.105-2.379
		c0.486-0.112,0.861-0.393,1.123-0.843c0.025,0.025,0.075,0.038,0.15,0.038c0.1,0,0.233-0.101,0.402-0.301
		c0.168-0.199,0.539-0.587,1.112-1.162c0.574-0.575,1.048-1.065,1.423-1.472c0.374-0.406,0.711-0.815,1.011-1.228l0.731-1.029
		c0.188-0.274,0.375-0.642,0.563-1.104c0.2,0,0.469-0.165,0.807-0.496c0.337-0.33,0.649-0.496,0.938-0.496h0.112
		c0.074,0.075,0.175,0.112,0.3,0.112h0.15c0.287,0.213,0.431,0.519,0.431,0.918C219.804,122.563,219.622,123.037,219.261,123.424z"
		/>
	<path fill="#FFFFFF" d="M233.608,121.925c0.013,0.075,0.087,0.14,0.225,0.195s0.213,0.084,0.225,0.084h0.206
		c0.412,0,0.769,0.093,1.068,0.278s0.449,0.396,0.449,0.632c0,0.248-0.175,0.489-0.524,0.725l-0.225-0.242
		c-0.175,0.31-0.475,0.502-0.899,0.576l-0.112-0.225l-0.225,0.075c-0.55-0.25-1.111-0.375-1.686-0.375l-1.761,0.075
		c-0.25,0-0.625-0.025-1.124-0.075c-0.325,2.427-0.487,4.334-0.487,5.722c0,0.513,0.028,1.109,0.084,1.791
		c0.057,0.682,0.166,1.238,0.328,1.67s0.324,0.828,0.487,1.191c0.162,0.362,0.437,0.722,0.824,1.078
		c0.387,0.356,0.746,0.609,1.077,0.76c0.33,0.149,0.618,0.359,0.861,0.628c0.243,0.27,0.877,0.403,1.901,0.403h0.374
		c0.237,0.188,0.356,0.344,0.356,0.469c0,0.138-0.091,0.35-0.271,0.637c-0.182,0.287-0.325,0.53-0.431,0.73
		c-0.106,0.199-0.284,0.418-0.534,0.655h-0.075c-0.063,0-0.112-0.037-0.149-0.112c-0.438,0-0.824-0.05-1.161-0.15
		c0,0.025-0.013,0.038-0.038,0.038s-0.084-0.035-0.178-0.104s-0.185-0.122-0.271-0.159c-0.088-0.175-0.269-0.331-0.543-0.469
		c-0.563-0.2-1.084-0.494-1.564-0.882c-0.48-0.387-0.978-0.938-1.489-1.65c-0.512-0.712-0.834-1.368-0.965-1.969
		c-0.131-0.6-0.237-1.322-0.318-2.166s-0.122-1.747-0.122-2.71c0-1.625,0.119-3.413,0.356-5.363l-0.394-0.132l-0.112,0.244h-0.263
		l-0.074-0.244c-2.897-0.11-4.346-0.389-4.346-0.832c0-0.16,0.091-0.305,0.271-0.435c0.181-0.129,0.708-0.194,1.583-0.194h0.73
		l0.786-0.188c0.287-0.063,0.568-0.175,0.843-0.337c0.275-0.162,0.516-0.362,0.722-0.6s0.396-1.067,0.571-2.491
		c0.112-0.874,0.169-1.805,0.169-2.791v-0.768c0-0.237,0.087-0.574,0.262-1.012s0.391-0.78,0.646-1.03s0.44-0.375,0.553-0.375
		c0.249,0,0.512,0.047,0.786,0.141s0.432,0.159,0.469,0.197c0.037,0.037,0.081,0.134,0.131,0.29s0.112,0.278,0.188,0.365v0.075
		c0,0.05-0.047,0.087-0.141,0.112s-0.153,0.05-0.178,0.074c-0.025,0.025-0.047,0.051-0.065,0.075
		c-0.019,0.025-0.109,0.362-0.271,1.012c-0.163,0.649-0.3,1.299-0.412,1.948s-0.2,1.286-0.263,1.91
		c-0.063,0.625-0.094,1.243-0.094,1.854c0,0.874,0.038,1.367,0.112,1.48c0.075,0.112,0.182,0.168,0.318,0.168
		c0.063,0,0.222-0.04,0.478-0.122c0.256-0.081,0.49-0.121,0.703-0.121c0.112,0,0.206,0.013,0.28,0.037l0.226,0.469
		c0.074,0.024,0.175,0.037,0.3,0.037c0.137,0,0.402-0.084,0.796-0.253S233.321,121.976,233.608,121.925z"/>
	<path fill="#FFFFFF" d="M249.25,123.93c0,0.125-0.087,0.334-0.262,0.627c-0.176,0.294-0.294,0.568-0.356,0.824
		c-0.063,0.257-0.225,0.516-0.487,0.777h-0.468c-0.649-0.387-1.131-0.58-1.442-0.58c-0.225,0-0.594,0.131-1.105,0.394
		c-0.512,0.262-1.005,0.728-1.479,1.396s-0.78,1.195-0.918,1.582c-0.063,0.425-0.262,0.875-0.6,1.349v0.618
		c-0.237,0.612-0.337,1.059-0.3,1.34c0.038,0.281,0.057,0.496,0.057,0.646c0,0.162-0.013,0.293-0.037,0.393
		c-0.15,0.15-0.226,0.3-0.226,0.45c0,0.313,0.066,0.861,0.197,1.648c0.131,0.786,0.347,1.386,0.646,1.798v0.169
		c0,0.562-0.231,0.843-0.693,0.843l-0.375,0.374c-0.313,0.025-0.649,0.038-1.012,0.038c-0.462,0-0.867-0.063-1.217-0.188v-0.075
		c0-0.337,0.103-0.83,0.309-1.479s0.31-1.143,0.31-1.479l0.112-4.402c0-3.421-0.188-6.438-0.563-9.047
		c-0.037-0.274-0.056-0.432-0.056-0.469c0-0.475,0.228-0.836,0.684-1.086s0.853-0.375,1.189-0.375c0.3,0,0.581,0.075,0.843,0.225
		c0.025,0.05,0.071,0.138,0.141,0.263c0.068,0.125,0.103,0.206,0.103,0.243v0.225c0,0.188-0.109,0.606-0.327,1.255
		c-0.219,0.649-0.328,1.474-0.328,2.473l0.037,2.305v0.337c0,0.188,0.169,0.318,0.506,0.394c0.524-1.162,1.152-2.076,1.883-2.744
		s1.633-1.152,2.707-1.452c1.073-0.3,1.754-0.449,2.041-0.449c0.325,0.225,0.487,0.431,0.487,0.618V123.93z"/>
	<path fill="#FFFFFF" d="M251.666,126.877c1.948-3.714,5.451-5.57,10.509-5.57c0.787,0,1.489,0.044,2.107,0.132
		s1.189,0.231,1.714,0.432s1.012,0.469,1.461,0.806c0.449,0.338,0.884,0.757,1.302,1.257s0.834,1.1,1.246,1.8
		c0.225,0.375,0.337,1.188,0.337,2.438c0,2.863-0.971,5.301-2.913,7.313c-1.941,2.013-4.343,3.02-7.202,3.02h-0.149
		c-0.588-0.125-0.912-0.188-0.975-0.188c-0.05,0-0.087,0.013-0.112,0.037c-0.112,0.175-0.493,0.263-1.143,0.263
		c-0.887,0-1.933-0.253-3.138-0.76c-1.205-0.506-2.191-1.284-2.959-2.334c-0.769-1.051-1.152-2.157-1.152-3.319
		c0-0.45,0.021-0.897,0.065-1.341s0.112-0.869,0.206-1.275s0.209-0.791,0.347-1.153l0.449-1.068V126.877z M268.169,129.933v-0.487
		c0-2.075-0.652-3.748-1.958-5.017c-1.305-1.27-3.031-1.904-5.179-1.904c-0.475,0-0.918,0.054-1.33,0.16
		c-0.412,0.105-0.649,0.175-0.712,0.206s-0.172,0.163-0.327,0.394c-0.157,0.231-0.27,0.369-0.338,0.413s-0.165,0.065-0.29,0.065
		l-0.955-0.112c-0.138,0-0.231,0.112-0.281,0.337c-0.949,0.075-1.842,0.782-2.679,2.12s-1.255,2.731-1.255,4.182
		c0,0.313,0.063,0.973,0.188,1.979c0.124,1.006,0.512,1.838,1.161,2.494s1.439,1.219,2.369,1.688
		c0.931,0.47,1.683,0.704,2.258,0.704c0.149,0,0.3-0.019,0.449-0.057l0.169-0.056h0.768c1.674,0,2.81-0.257,3.409-0.77
		c0.063-0.05,0.1-0.075,0.112-0.075c0.075,0,0.193,0.038,0.356,0.112c1.373-1.188,2.395-2.435,3.063-3.741
		S268.169,130.383,268.169,129.933z"/>
	<path fill="#FFFFFF" d="M283.229,122.169c0.812-0.138,1.491-0.206,2.041-0.206c3.396,0,5.096,2.123,5.096,6.368
		c0,2.36-0.388,5.089-1.162,8.187c-0.35,1.336-0.524,2.229-0.524,2.678c0,0.101,0.025,0.2,0.075,0.3
		c-0.149,0.774-0.605,1.162-1.367,1.162c-0.45,0-0.859-0.125-1.228-0.375s-0.552-0.513-0.552-0.787c0-0.412,0.262-0.924,0.786-1.536
		c0.524-0.611,1.005-1.804,1.442-3.577s0.655-3.56,0.655-5.357c0-3.684-1.511-5.525-4.532-5.525c-1.187,0-2.302,0.243-3.344,0.73
		c-1.043,0.486-1.64,1.023-1.789,1.61c-0.112,0.125-0.281,0.25-0.506,0.375c-0.2,0.1-0.315,0.19-0.347,0.271
		s-0.097,1.027-0.196,2.838c-0.101,1.811-0.15,3.185-0.15,4.121v0.88c0,0.463,0.078,0.887,0.234,1.274
		c0.156,0.387,0.234,0.611,0.234,0.674l-0.037,0.656c0,0.411-0.072,0.739-0.216,0.983c-0.144,0.243-0.328,0.365-0.553,0.365h-0.075
		l-0.112,0.262c-0.149-0.05-0.256-0.075-0.318-0.075c-0.175,0-0.399,0.101-0.674,0.3h-0.094c-0.138,0-0.35-0.162-0.637-0.486
		c-0.412,0-0.618-0.156-0.618-0.469c0-0.274,0.087-0.506,0.262-0.693c0.162,0,0.35-0.82,0.563-2.463
		c0.212-1.642,0.318-3.725,0.318-6.247c0-3.271-0.269-5.139-0.806-5.601l-0.037-0.337c0-0.475,0.274-0.793,0.824-0.956
		c0.225-0.062,0.427-0.23,0.608-0.505c0.181-0.275,0.371-0.412,0.571-0.412h0.037c0.25-0.038,0.466-0.101,0.646-0.188
		c0.181-0.088,0.284-0.131,0.31-0.131c0.174,0,0.262,0.243,0.262,0.73c0,0.374-0.075,0.802-0.225,1.282
		c-0.15,0.481-0.225,0.784-0.225,0.909c0,0.188,0.065,0.35,0.196,0.486c0.131,0.138,0.297,0.206,0.496,0.206h0.113
		c0.349-0.337,0.536-0.505,0.562-0.505h0.057c1.198,0,2.104-0.244,2.716-0.73c0.112-0.013,0.249-0.035,0.412-0.066
		c0.162-0.03,0.269-0.047,0.318-0.047C283.042,122.356,283.204,122.231,283.229,122.169z"/>
	<path fill="#FFFFFF" d="M300.368,138.315c0,0.075-0.271,0.222-0.81,0.44c-0.54,0.218-0.879,0.327-1.017,0.327h-0.113
		c-0.125,0-0.285,0.025-0.479,0.075c-0.195,0.05-0.33,0.075-0.405,0.075c-0.238,0-0.452-0.085-0.64-0.253
		c-0.188-0.169-0.283-0.303-0.283-0.403c0-0.262,0.05-0.671,0.15-1.227c0.1-0.556,0.256-0.965,0.468-1.227
		c0.101-0.787,0.15-2.254,0.15-4.402l-0.15-6.8l0.038-1.18c0-0.125-0.104-0.355-0.31-0.693c-0.206-0.337-0.309-0.749-0.309-1.236
		c0-0.287,0.078-0.489,0.235-0.608c0.157-0.118,0.519-0.297,1.084-0.534l1.074-0.468c0.05-0.025,0.125-0.038,0.226-0.038
		c0.314,0,0.472,0.487,0.472,1.462c0,0.549-0.098,1.976-0.291,4.279c-0.193,2.305-0.29,4.175-0.29,5.61
		c0,0.813,0.021,1.577,0.065,2.295s0.091,1.265,0.141,1.639c0.05,0.375,0.162,0.719,0.337,1.03c0.35,0.649,0.524,1.236,0.524,1.761
		C300.286,138.266,300.33,138.29,300.368,138.315z M299.506,114.451c0.2,0.15,0.524,0.331,0.975,0.543
		c0.449,0.213,0.674,0.469,0.674,0.769c0,0.274-0.162,0.565-0.486,0.871c-0.325,0.306-0.65,0.459-0.975,0.459
		c-0.362,0-0.746-0.206-1.152-0.618c-0.405-0.412-0.608-0.649-0.608-0.712c0-0.225,0.172-0.499,0.516-0.824
		c0.343-0.324,0.677-0.487,1.002-0.487H299.506z"/>
	<path fill="#FFFFFF" d="M317.977,135.58c0.587,0.363,0.88,0.85,0.88,1.462c0,0.799-0.212,1.198-0.637,1.198h-0.169
		c-0.112,0-0.515,0.069-1.208,0.206c-0.693,0.138-1.451,0.206-2.275,0.206h-0.469l-1.33,0.075c-0.486,0-0.937-0.05-1.349-0.15
		c-0.199-0.087-0.678-0.249-1.433-0.486c-0.756-0.237-1.271-0.44-1.546-0.609c-0.274-0.168-0.621-0.442-1.039-0.824
		c-0.419-0.381-0.784-0.789-1.096-1.227c-0.313-0.437-0.578-0.905-0.796-1.405c-0.219-0.499-0.382-1.023-0.487-1.573
		c-0.106-0.549-0.159-1.117-0.159-1.704c0-1.748,0.312-3.237,0.937-4.468c0.624-1.229,1.642-2.332,3.053-3.306
		c0.213-0.112,0.513-0.303,0.899-0.571s0.693-0.45,0.918-0.544s0.887-0.24,1.985-0.439c1.099-0.2,2.211-0.3,3.334-0.3h0.693
		c0.225-0.05,0.48-0.075,0.769-0.075c0.586,0,0.88,0.256,0.88,0.768c0,0.088-0.019,0.223-0.056,0.403
		c-0.038,0.181-0.057,0.315-0.057,0.402l0.037,1.424c-0.199,0.05-0.344,0.075-0.431,0.075c-0.3,0-0.668-0.101-1.105-0.3
		c-0.486-0.438-0.887-0.656-1.198-0.656h-0.263c-0.149,0-0.493-0.05-1.03-0.149s-1.023-0.149-1.461-0.149
		c-0.324,0-0.736,0.149-1.236,0.449c-0.149-0.075-0.274-0.112-0.374-0.112h-0.075c-0.05,0-0.131,0.05-0.243,0.149
		c-0.425,0.388-1,0.706-1.724,0.955c-0.55,0.213-1.012,0.682-1.386,1.405c-0.375,0.725-0.743,1.268-1.105,1.63
		c-0.101,0.786-0.15,1.517-0.15,2.191c0,1.523,0.169,2.619,0.506,3.287c0.338,0.668,0.812,1.277,1.424,1.826
		c0.611,0.55,1.03,0.956,1.255,1.218h0.543c0.125,0.35,0.419,0.524,0.881,0.524c0.263,0,0.646,0.06,1.152,0.178
		c0.506,0.119,0.89,0.179,1.151,0.179l0.563-0.038h0.431c0.637,0,1.12-0.056,1.451-0.168s0.733-0.213,1.209-0.3
		C317.514,136.148,317.826,135.931,317.977,135.58z"/>
	<path fill="#FFFFFF" d="M333.673,128.294c0,0.101-0.084,0.237-0.253,0.412s-0.284,0.331-0.347,0.469
		c-0.063,0.137-0.112,0.502-0.149,1.096c-0.038,0.593-0.057,1.47-0.057,2.632l0.075,2.528c0,0.138-0.057,0.256-0.169,0.355
		c-0.025,0.138-0.037,0.369-0.037,0.693c0,0.462,0.074,1.049,0.225,1.761l0.206,0.993l-0.037,0.918l0.037,0.805
		c-0.899,0.899-1.567,1.349-2.004,1.349c-0.063,0-0.182-0.043-0.356-0.131c-0.175-0.087-0.337-0.131-0.487-0.131h-0.112
		c-0.1-0.35-0.149-0.662-0.149-0.937c0-0.612,0.144-1.199,0.431-1.761c0.138-0.175,0.24-0.313,0.31-0.412
		c0.068-0.101,0.103-0.475,0.103-1.124c0-0.712-0.075-1.067-0.225-1.067c-0.025,0-0.104,0.024-0.234,0.074
		c-0.131,0.051-0.271,0.075-0.421,0.075h-0.15c-0.149,0.101-0.243,0.231-0.281,0.394c-0.149-0.013-0.968,0.269-2.453,0.843
		c-0.725,0.25-1.424,0.375-2.099,0.375c-0.736,0-1.398-0.097-1.985-0.291c-0.587-0.193-1.08-0.48-1.479-0.861
		c-0.4-0.381-0.659-0.665-0.777-0.853c-0.119-0.187-0.178-0.593-0.178-1.217l0.037-0.469v-0.149c0-1.249,0.971-2.561,2.913-3.934
		c1.941-1.374,3.755-2.204,5.441-2.492c0.449-0.074,0.799-0.152,1.049-0.233s0.459-0.216,0.627-0.403
		c0.169-0.187,0.253-0.618,0.253-1.292c0-2.223-1.174-3.734-3.521-4.533c-0.074-0.024-0.178-0.075-0.309-0.149
		c-0.131-0.075-0.247-0.113-0.347-0.113c-1.211,0-2.223,0.051-3.034,0.15c-0.45,0.512-0.949,0.768-1.499,0.768
		c-0.412,0-0.618-0.144-0.618-0.431c0-0.012,0.091-0.277,0.271-0.796c0.182-0.519,0.615-0.777,1.302-0.777
		c0.787-0.425,2.223-0.637,4.309-0.637c1.673,0,2.972,0.649,3.896,1.948c0.924,1.299,1.386,3.153,1.386,5.563v0.263
		c0.1,0.162,0.274,0.281,0.524,0.355c0.25,0.075,0.375,0.188,0.375,0.338V128.294z M329.982,134.943
		c0.787-1.061,1.181-2.01,1.181-2.847c0-0.512-0.129-1.068-0.385-1.667c-0.256-0.6-0.765-0.899-1.526-0.899
		c-1.474,0-2.673,0.368-3.597,1.105h-0.468c-1.924,1.062-2.885,2.186-2.885,3.371c0,0.837,0.396,1.539,1.189,2.107
		s1.714,0.853,2.763,0.853c0.274,0,0.799-0.119,1.573-0.356c0.774-0.236,1.492-0.68,2.154-1.329V134.943z"/>
</g>
</svg>
